<svg width="16" height="16" viewBox="0 0 16 16" fill="none" xmlns="http://www.w3.org/2000/svg">
<path fill-rule="evenodd" clip-rule="evenodd" d="M10.8072 0.36866C11.2988 -0.122886 12.0957 -0.122886 12.5873 0.368656L15.6313 3.41267C16.1229 3.90422 16.1229 4.70118 15.6313 5.19273L5.82415 15H1V10.1758L10.8072 0.36866ZM11.6973 2.32672L9.7191 4.30487L11.6951 6.28089L13.6733 4.30271L11.6973 2.32672ZM3.0139 11.01L8.30488 5.71908L10.2809 7.69511L4.98996 12.9861H3.0139V11.01Z" fill="#00601B"/>
<path d="M10 13C9.44772 13 9 13.4477 9 14C9 14.5523 9.44772 15 10 15H14C14.5523 15 15 14.5523 15 14C15 13.4477 14.5523 13 14 13H10Z" fill="#00601B"/>
</svg>
